
<global>
amp_veltrack=0
ampeg_attack=0.01
ampeg_release=0.45
</global>

<group>
group_label=PP
lpc_hicc1=42
lpc_locc1=0

<region>
hivel=127
key=a#3
loop_end=285643
loop_mode=loop_continuous
loop_start=63387
loop_xfade=26931
lovel=1
lpc=Ls+MQlDPR8OXuU1DrjquwqYhjEFcUVHB1B7hQLIoCEG+axXBM8YhwTIJ0kHhFqfBFe2qQCmOFUCi7oZAiI9Mwd7wCUGcGcRA0fZJwRgSOUBtOhxBUQKuwFwc4sAhEcBA
lpc_rms=-24.71
sample=Oboe_nonvib_PP_A#3.opus
</region>

<region>
hikey=a#4
hivel=127
lokey=a4
loop_end=266210
loop_mode=loop_continuous
loop_start=59074
loop_xfade=25099
lovel=1
lpc=CA/vQf+6p8Io3KVCzpKWwQpK28HOebRBOpIYQLjORMFPuZs/PD5UQSRW9cDUVkPBOAxkQcwEWUBe5jfBpJkswG3XZ0F0+fQ/AH63wfSSlEEgViS/EREKwZVj0EDdAt2/
lpc_rms=-28.54
pitch_keycenter=a#4
sample=Oboe_nonvib_PP_A#4.opus
</region>

<region>
hikey=a#5
hivel=127
lokey=a5
loop_end=254798
loop_mode=loop_continuous
loop_start=56542
loop_xfade=24023
lovel=1
lpc=pSc1Qghxc8JTaIVBN5kdQgdRCcISYwlA/YxdQXYVtD868RbBBPtCQVLy1cCYB5dAP+2NQHI8xcDFmh9BIAwYwCq+CcGEtJxBiSPHwL3fqcCaraJAm0eAQHhaCkGIElXB
lpc_rms=-31.01
pitch_keycenter=a#5
sample=Oboe_nonvib_PP_A#5.opus
</region>

<region>
hikey=c4
hivel=127
lokey=b3
loop_end=272275
loop_mode=loop_continuous
loop_start=60420
loop_xfade=25671
lovel=1
lpc=4TpNQhfVHcNaIDhDk8S9wivcfEHVa85A3/blwDxsH0HYnIPBRu5XQXxEKcAT8GvALqtJvtAj7EB4ytDAWO3Av9qIQ0E2rgDBXJnywJwysj/DsWdBsW1YwRsQ30C1AiPA
lpc_rms=-25.94
pitch_keycenter=c4
sample=Oboe_nonvib_PP_C4.opus
</region>

<region>
hikey=c5
hivel=127
lokey=b4
loop_end=258076
loop_mode=loop_continuous
loop_start=57270
loop_xfade=24332
lovel=1
lpc=EDEDQt6qqMIAlIdCnvGNQGdYGcLhGL5BTH8QwIvPaMDq2m6+o8cGQdpupMFb1pxBXDAmwGXQUMGB+6dBJDCLwVkcQUD6QUpByeRzwWjvxr7n1VFBZ6qYwKLHucBpImhA
lpc_rms=-28.43
pitch_keycenter=c5
sample=Oboe_nonvib_PP_C5.opus
</region>

<region>
hikey=c6
hivel=127
lokey=b5
loop_end=269440
loop_mode=loop_continuous
loop_start=59791
loop_xfade=25403
lovel=1
lpc=hqtVQvBhV8KsG3RBcdXLQWFUn8F4izJBlWeIvxuMNUEoLBnBINdzQUV/3sC5JeFAb1u5QK2G0MAQOmtBTXfYwGlw7UAOMg9Az8UtQA4jt785bGRBbS2mwFlwqMGTlSZB
lpc_rms=-28.02
pitch_keycenter=c6
sample=Oboe_nonvib_PP_C6.opus
</region>

<region>
hikey=d4
hivel=127
lokey=c#4
loop_end=275756
loop_mode=loop_continuous
loop_start=61193
loop_xfade=25999
lovel=1
lpc=8fT6QcNlvMJ7ReBCRI+KwmdZ6kHsHUjBuwrLP12Z1EBCcizB2jtWQTfLgMGdDIBBwzcOwXJsDcCh+FFBu3GbwSHnNEEqm3dAZrj6wNh0mEDTA3zA/BZsQGhIJ8DvDIw/
lpc_rms=-26.82
pitch_keycenter=d4
sample=Oboe_nonvib_PP_D4.opus
</region>

<region>
hikey=d5
hivel=127
lokey=c#5
loop_end=266743
loop_mode=loop_continuous
loop_start=59193
loop_xfade=25149
lovel=1
lpc=AhoIQl2M1MKvXAdDN+KuwhFK5EFFRMs/jQoVwf+8mUCnhy7A7JdcQTJn3MHwb69BzGwKP2xrCME/DaVARdA2wZ2VeUFRtAXB25zCvwoVSEFC7IPBwzovQarXuMBe8CpA
lpc_rms=-25.05
pitch_keycenter=d5
sample=Oboe_nonvib_PP_D5.opus
</region>

<region>
hikey=d6
hivel=127
lokey=c#6
loop_end=254756
loop_mode=loop_continuous
loop_start=56533
loop_xfade=24019
lovel=1
lpc=A0WYQrzNncL8PSBA2uZAQpDF2MH4a51BdkDtwNgtjkGEigTB/MYRQAS6a0FK+x7BrzJPQdCbTsAM2lpBg6A9wUxgZ0FxXZxAUtIowYS9xEEGLGzC4UijQTGoKEJDw+zB
lpc_rms=-27.96
pitch_keycenter=d6
sample=Oboe_nonvib_PP_D6.opus
</region>

<region>
hikey=e4
hivel=127
lokey=d#4
loop_end=265189
loop_mode=loop_continuous
loop_start=58848
loop_xfade=25002
lovel=1
lpc=679TQnFKIsP2PzFDJFxiwu8HEsIHowFCTpMqwVCvnUFRe8/BhITNQAMKGEFzpCvB/uYPQdabXcAKUB4/hrN4wLh6CUHuRe3A6lj6wEPZi0GZnVPB/khkQW6GVsFcII5A
lpc_rms=-25.22
pitch_keycenter=e4
sample=Oboe_nonvib_PP_E4.opus
</region>

<region>
hikey=e5
hivel=127
lokey=d#5
loop_end=256557
loop_mode=loop_continuous
loop_start=56932
loop_xfade=24189
lovel=1
lpc=2dSQQqL3QsMtE05DB7mOwiueKcJvAAFCpbWwQbDjSsAVJTbCPVgIQv8cgUHbVb7B0i/awBVvcUHfZFNBuvC+wUIUkD82TppBjUsFwZaQSMDDAh/BskcUQhOuMMJJ+bJB
lpc_rms=-23.33
pitch_keycenter=e5
sample=Oboe_nonvib_PP_E5.opus
</region>

<region>
hikey=A6
hivel=127
lokey=d#6
loop_end=249208
loop_mode=loop_continuous
loop_start=55302
loop_xfade=23496
lovel=1
lpc=vzc/Q+qPisNse9pCi5XkQntmDsOLTtFCt9Ovwdj78UFJO4q/a4bNQWHmfECAtVtBzB/0QW4YxcDKZ89BDLmDQBoAvUGjKITA+pLewlE0K0NvJa/AVnS8wsz8o0LWXJTB
lpc_rms=-17.46
pitch_keycenter=E6
sample=Oboe_nonvib_PP_E6.opus
</region>

<region>
hikey=f#4
hivel=127
lokey=f4
loop_end=261361
loop_mode=loop_continuous
loop_start=57999
loop_xfade=24641
lovel=1
lpc=p0L0QZuCpcLdaZBCUkiIwPRF9MEjtL5Bv3KMwcLYm0EafmfBQ7yMvg//IEHC4j3BUMauQA+PwEAXjzLAmFzlwEZKi0BzvcFA8TxUwSCvBUGkSdE/N0DIvtGUjcCLLB5A
lpc_rms=-30.74
pitch_keycenter=f#4
sample=Oboe_nonvib_PP_F#4.opus
</region>

<region>
hikey=f#5
hivel=127
lokey=f5
loop_end=261357
loop_mode=loop_continuous
loop_start=57998
loop_xfade=24641
lovel=1
lpc=ud4mQuqvtsKzz5JCfI40QNOlJ8J7n9lBfDPmwLukZEHdApjBITwZQfly6ED2HSrBCf/DQISKh79qQzlADuyzvGmQFMAY4gtBXfoTwQm5H0AfpK9AXtGpQHNIh8E1QllB
lpc_rms=-30.30
pitch_keycenter=f#5
sample=Oboe_nonvib_PP_F#5.opus
</region>

<region>
hikey=g#4
hivel=127
lokey=g4
loop_end=259491
loop_mode=loop_continuous
loop_start=57583
loop_xfade=24465
lovel=1
lpc=NFKzQSKTb8LsbDxCC0KJQRh8OcIuxplBl7UgQZi+csFSIPRAY0SRQB34g8FLknRBCSquv/GotL9fU+HAEo59QO1cBEFDn07BaEAHQTcgXMAiWR1AehXFvRIlVsAhrxJA
lpc_rms=-27.86
pitch_keycenter=g#4
sample=Oboe_nonvib_PP_G#4.opus
</region>

<region>
hikey=g#5
hivel=127
lokey=g5
loop_end=266506
loop_mode=loop_continuous
loop_start=59140
loop_xfade=25127
lovel=1
lpc=zEB2Qih7vMJ99jVCJolBQvkOZsLiSk9BZmPLQbMKs8BNXgq/wB6yQDHsMsEVxN1Bsq0awe/w5j/g3YtACngEQLBVeEEKjEnBeRgjQOy0xEDGe5VB69Uxwa/pzMAyo6BB
lpc_rms=-26.73
pitch_keycenter=g#5
sample=Oboe_nonvib_PP_G#5.opus
</region>
</group>

<group>
group_label=MF
lpc_hicc1=84
lpc_locc1=43

<region>
hivel=127
key=a#3
loop_end=269014
loop_mode=loop_continuous
loop_start=59697
loop_xfade=25363
lovel=1
lpc=SHI6QgEoH8ObiltDbH8Iw29D1kCC3jJCZDnAwbehX7+A/jNBgVw+wWhmmj+Xb89Ab9OwuxA2FsCLQ/LABzKLQFMBoEF5E/PBtbpfQaa3AUCExLjAv04GQawMEcGCk3BA
lpc_rms=-18.54
sample=Oboe_nonvib_MF_A#3.opus
</region>

<region>
hikey=a#4
hivel=127
lokey=a4
loop_end=278133
loop_mode=loop_continuous
loop_start=61720
loop_xfade=26223
lovel=1
lpc=53oXQnAZ0sI2rtZCz/33wTDRAcK8LRtC/m3twERhe8E/kl5BtQdQv3aVecHMgZVBimtxwCjdaT/0m0VAHeubwb+Gi0EMeTlAyNdcwd6JAUHPs2FAqLkZwCJUb8DkuyNA
lpc_rms=-19.83
pitch_keycenter=a#4
sample=Oboe_nonvib_MF_A#4.opus
</region>

<region>
hikey=a#5
hivel=127
lokey=a5
loop_end=269007
loop_mode=loop_continuous
loop_start=59695
loop_xfade=25362
lovel=1
lpc=Yk/aQhbgHcOz/tVCnWpKQXooMcJzr8JBFkOsQUaD9cDUQxA/O4Q5QZLhVkEZlVDBLUTmQU1dtcE3TvtBb5nTwIRMCkEbzQnAQXNzQRQ3BUHJaCfAsFFvwcRJf0LPvynC
lpc_rms=-16.82
pitch_keycenter=a#5
sample=Oboe_nonvib_MF_A#5.opus
</region>

<region>
hikey=c4
hivel=127
lokey=b3
loop_end=268885
loop_mode=loop_continuous
loop_start=59668
loop_xfade=25351
lovel=1
lpc=xLZpQhPiSMPJrZJDe8ZYw3ITU0KkPjNC5DIHwjfI/sBy3qRBHjEzwWGZWz+6moHA3YpNQSlLu78577PBgsXrQZMYS8GeQuHA/+pXQe5DO8F+PwNBXh90v8xJgcCL7TJA
lpc_rms=-18.19
pitch_keycenter=c4
sample=Oboe_nonvib_MF_C4.opus
</region>

<region>
hikey=c5
hivel=127
lokey=b4
loop_end=278235
loop_mode=loop_continuous
loop_start=61743
loop_xfade=26232
lovel=1
lpc=857WQQkel8IeirJC2MxCwkK8mT8VMVhBU5H3v+farL9ivc3ASLEcQQ8rs8AECI4/1jG7QK2AScHIAA1BA/E6QCrODsHrSxVBRuW3wFSKCb6qOYpAsqqmwKREhkByYuG/
lpc_rms=-18.79
pitch_keycenter=c5
sample=Oboe_nonvib_MF_C5.opus
</region>

<region>
hikey=c6
hivel=127
lokey=b5
loop_end=258502
loop_mode=loop_continuous
loop_start=57364
loop_xfade=24372
lovel=1
lpc=50g6QkGDg8JtSWVClTuuwffoAUFpZqBA8yU/vjwLhEGygKzB2LXsQZsxCsHTscw+G3kyQdATlr969BFB8MI3wSTo4EFec5rBCVpUQXF300CigsTAj0qkQYnQ/8GBa4NB
lpc_rms=-21.88
pitch_keycenter=c6
sample=Oboe_nonvib_MF_C6.opus
</region>

<region>
hikey=d4
hivel=127
lokey=c#4
loop_end=274302
loop_mode=loop_continuous
loop_start=60870
loop_xfade=25862
lovel=1
lpc=YqviQTI1oMI1SbVCm/1xwtsOHEIHDLXBU44VQSfAR8EDsZRBllyIwXVtgEFZzWzBVe8SQZvwxMCe35BA9WKUQDFdLcFO6wdBdSUHwTvSFUGrgxbB6Qw8QYaKCcHVGwFA
lpc_rms=-22.08
pitch_keycenter=d4
sample=Oboe_nonvib_MF_D4.opus
</region>

<region>
hikey=d5
hivel=127
lokey=c#5
loop_end=260031
loop_mode=loop_continuous
loop_start=57703
loop_xfade=24516
lovel=1
lpc=l1zCQTjknML/uOhCF4bKwrXHUEIGYirBUjZUv2aG28CM10VBF6zowLG3gcC6zyFBgeccwIZAocAfXhRAeyLWQKoabMHVdWlB3JJRwAx8NsFs7IpBhg8mwV7DPT82X/o/
lpc_rms=-22.50
pitch_keycenter=d5
sample=Oboe_nonvib_MF_D5.opus
</region>

<region>
hikey=d6
hivel=127
lokey=c#6
loop_end=258249
loop_mode=loop_continuous
loop_start=57308
loop_xfade=24348
lovel=1
lpc=ZP58QpshgsJlUBdCbNptQTHQVcGinodBzWX1PgNh2T+f+XhAAZ6QQBopdkD9ywdAJ8xWQKDztkBA1/g/IOF9QBVkIT9YrC5Bg7zCwNDKZkGT5CXCiFRdQZ76XUG8YaHB
lpc_rms=-19.66
pitch_keycenter=d6
sample=Oboe_nonvib_MF_D6.opus
</region>

<region>
hikey=e4
hivel=127
lokey=d#4
loop_end=267203
loop_mode=loop_continuous
loop_start=59295
loop_xfade=25192
lovel=1
lpc=yus+QseiGcMLrUdDwkPswoZa70BVLdRBZ3THQOblvMFImJNA6tBNQVCcf8EwC+xAVc3zPwSFe0BBjV/BCPMJQWjXOUFvFrTB7fcQQWb3H0GEDrPBxkvwQaY7vcHHdvVA
lpc_rms=-18.16
pitch_keycenter=e4
sample=Oboe_nonvib_MF_E4.opus
</region>

<region>
hikey=e5
hivel=127
lokey=d#5
loop_end=261431
loop_mode=loop_continuous
loop_start=58014
loop_xfade=24648
lovel=1
lpc=OZGhQvfHVsMVEG1DoHH1wiG7eUHniB1ByJmIQUoaz8Eu/OFB2yFDwhcCMUKxXQTB/zkBwZ+bpUHTLqvBQDC+QLNK7MCtBEJB2wV3QcXRE8LSLBBBk2t0QuAqrsL1IyVC
lpc_rms=-14.25
pitch_keycenter=e5
sample=Oboe_nonvib_MF_E5.opus
</region>

<region>
hikey=A6
hivel=127
lokey=d#6
loop_end=260084
loop_mode=loop_continuous
loop_start=57715
loop_xfade=24521
lovel=1
lpc=uyktQhaPb8LiwFJCNf6vwDHPB8EXgndBOI4GQUtFgD6ecrxADTzMQO4kG0Alt8JATiI7QLAf70Aajjw/makYQXmsGsBVyHNBPz8vwhnsV0IRg9DBxMYQwaxur0FgolnB
lpc_rms=-20.39
pitch_keycenter=E6
sample=Oboe_nonvib_MF_E6.opus
</region>

<region>
hikey=f#4
hivel=127
lokey=f4
loop_end=277055
loop_mode=loop_continuous
loop_start=61481
loop_xfade=26121
lovel=1
lpc=65HtQVZevMICkfVCqf2RwupoNcBxmS9CSKAWwjJ0I0GfLOJAwbiHwNjIQMDafgW/lAf0QL2as8CrUuM+afrUP4kz9L+YJVU/5WkivpjCNsAJSB1BoxBpweejNkGIPnzA
lpc_rms=-22.77
pitch_keycenter=f#4
sample=Oboe_nonvib_MF_F#4.opus
</region>

<region>
hikey=f#5
hivel=127
lokey=f5
loop_end=265804
loop_mode=loop_continuous
loop_start=58984
loop_xfade=25060
lovel=1
lpc=9ArIQaFHisIvF65CIlFEwj2IEcFb0hBC8FWSwTgiy8Am8lhBLrXpwAZyzD8r4QK/2m0MQbEQccH0Bj5BD9KBv+ohDcDaON3Af32aQUT9R8EYQf3AoiGtQWkxkcHIIgNB
lpc_rms=-23.55
pitch_keycenter=f#5
sample=Oboe_nonvib_MF_F#5.opus
</region>

<region>
hikey=g#4
hivel=127
lokey=g4
loop_end=278481
loop_mode=loop_continuous
loop_start=61798
loop_xfade=26256
lovel=1
lpc=R+YHQpZ1u8JBI7VCXPJVwXn5JsIn+BZC19AWwWUdXcCHgqTA8C6IQWZ8xcE8ZKZBCbnIwIFWhUAqJ6DAOi1Ewd7X7EHZasPB9eOyQFg7r0B/hQXBQpsyQUK8EcHpWzVA
lpc_rms=-20.10
pitch_keycenter=g#4
sample=Oboe_nonvib_MF_G#4.opus
</region>

<region>
hikey=g#5
hivel=127
lokey=g5
loop_end=276448
loop_mode=loop_continuous
loop_start=61346
loop_xfade=26064
lovel=1
lpc=XYkdQn54jcLjRIZCb/HawaTF+j58AzhBoZ+PwI3YIUGl2gjBDzADQegslb934H9AeQimPl8ILkAAJyNAFpIVwO3hI0Fd3+LA1g0IQaNUg8BwPdU/TmNtQeiFhcF3imBB
lpc_rms=-20.96
pitch_keycenter=g#5
sample=Oboe_nonvib_MF_G#5.opus
</region>
</group>

<group>
group_label=FF
lpc_hicc1=127
lpc_locc1=85

<region>
hivel=127
key=a#3
loop_end=275042
loop_mode=loop_continuous
loop_start=61034
loop_xfade=25931
lovel=1
lpc=GM0AQkRP2cLdHB5DUsDxwuwQK0LhPmpAYuk7wTb4LEHfgM3AOWpYQCm1C8FjZxpBa9K9P+6Fr8B6VUrAeCEDQNhbYUGrQ5XBCYnqQChodsDjYkFBWQeAwe7qKUEkRUjA
lpc_rms=-17.36
sample=Oboe_nonvib_FF_A#3.opus
</region>

<region>
hikey=a#4
hivel=127
lokey=a4
loop_end=274342
loop_mode=loop_continuous
loop_start=60879
loop_xfade=25865
lovel=1
lpc=XQuUQUpxXcKusY9CN3o3wv5vtUB3MnxBN4lqwUaqD0H6RZrAESvOP/RbY8BnGSdBXvk8wUC/kECr8rlA6aRIwXdDY0FstBHB1OYmwO3WOEEZzPbA0igLwEajqkDXqvO/
lpc_rms=-21.24
pitch_keycenter=a#4
sample=Oboe_nonvib_FF_A#4.opus
</region>

<region>
hikey=a#5
hivel=127
lokey=a5
loop_end=258026
loop_mode=loop_continuous
loop_start=57258
loop_xfade=24327
lovel=1
lpc=p1gsQo86ecI/hUlCVd2zvq0KvcH33AJCqqtfwZuLv0AJzAtB80WdvmVBur8tpCJBhNqUQHXzR8FV1uxBgm63wXMTc0E+CjFBs06SwTOEyUFE9/7AGJSHwE7Iw0Gq90nB
lpc_rms=-22.45
pitch_keycenter=a#5
sample=Oboe_nonvib_FF_A#5.opus
</region>

<region>
hikey=c4
hivel=127
lokey=b3
loop_end=281182
loop_mode=loop_continuous
loop_start=62397
loop_xfade=26510
lovel=1
lpc=+SwZQhz5/sLUADpDi68NwxgVHUL4KtpByH/4wfd3rkHhz/XBR84wQjthKcJDP7pBoc7Xv6eUEcFvNzRBFaZ5wZ+lvUElNNTB8UmlQeOwGcEOjKm/WLEDQUmhDMF2qIFA
lpc_rms=-15.97
pitch_keycenter=c4
sample=Oboe_nonvib_FF_C4.opus
</region>

<region>
hikey=c5
hivel=127
lokey=b4
loop_end=266660
loop_mode=loop_continuous
loop_start=59174
loop_xfade=25141
lovel=1
lpc=abzaQSW6m8KqzLtCIEFfwhHhxUCOE69BokDFwRIHm0Hn+YPBk/KDQa5BccHEg/FAeeZDQGtOEsFh6zlBWKldwRKve0FV2BzBUOFXwLK3EUHjo6M/r0tbwYYzWEHSNJPA
lpc_rms=-18.86
pitch_keycenter=c5
sample=Oboe_nonvib_FF_C5.opus
</region>

<region>
hikey=c6
hivel=127
lokey=b5
loop_end=257265
loop_mode=loop_continuous
loop_start=57089
loop_xfade=24255
lovel=1
lpc=qXk7QgHmZMJDWSdCelKxv1iAMcEgGKJBdYnVvwL5zD+Fnl9AjUlzQfC1ZcFfMpFBQiZMQDYBDMGazLZBRYIgwS+l2kCw6AxB3DEeQOY+ocB0vJVBJDiNP+y7vcGWHGRB
lpc_rms=-23.84
pitch_keycenter=c6
sample=Oboe_nonvib_FF_C6.opus
</region>

<region>
hikey=d4
hivel=127
lokey=c#4
loop_end=283265
loop_mode=loop_continuous
loop_start=62859
loop_xfade=26707
lovel=1
lpc=bEy1QVivj8J2eMNCMtKWwr+cHkJnppXBW+kSQWair8BAFeZAvt9vwB2c6cBKBhxBEfXhvrQhlMBshhtAbbQPv9TB6r947dFA21EpweEkUEFvSXbB3Dl5QeFSHsHh7zNA
lpc_rms=-18.41
pitch_keycenter=d4
sample=Oboe_nonvib_FF_D4.opus
</region>

<region>
hikey=d5
hivel=127
lokey=c#5
loop_end=263834
loop_mode=loop_continuous
loop_start=58547
loop_xfade=24875
lovel=1
lpc=8osnQo/aDMPLLFFDTa85wypp40IHTyLCtuYrwSX93UHo6R/BhM+nwXr000HM7uvA1eR2wOCdQEHbnZnBH0lkQYRK9sCUCxVBI4icwb9yAELLCgTCejvdQX3yo8F9YwJB
lpc_rms=-15.54
pitch_keycenter=d5
sample=Oboe_nonvib_FF_D5.opus
</region>

<region>
hikey=d6
hivel=127
lokey=c#6
loop_end=252320
loop_mode=loop_continuous
loop_start=55992
loop_xfade=23789
lovel=1
lpc=uzqgQgi57MJMiKJCrjuovdh67cFClg5CnXdOvzHIlz80KEw+V9GlQSRANcEmE2xBflrbQGeKAMHvHMtB53gqwanGu0DWRo9B8++fwM0ufkC2IBXCiLAyQhlxKMFldGe+
lpc_rms=-19.81
pitch_keycenter=d6
sample=Oboe_nonvib_FF_D6.opus
</region>

<region>
hikey=e4
hivel=127
lokey=d#4
loop_end=275186
loop_mode=loop_continuous
loop_start=61066
loop_xfade=25945
lovel=1
lpc=GOxZQg/cOsP/MZBD6U9ww3qJl0JivltCaqp/wkHqnUGhRkbBzYY7QoeBf8JT6hFC0SIKwIIB2cDfYZVAm4B6wc0IEUJWFRLCWE4kQVtWt0HNJznC4uJJQpGtAMJHYBtB
lpc_rms=-11.20
pitch_keycenter=e4
sample=Oboe_nonvib_FF_E4.opus
</region>

<region>
hikey=e5
hivel=127
lokey=d#5
loop_end=275544
loop_mode=loop_continuous
loop_start=61146
loop_xfade=25979
lovel=1
lpc=oKi6Qli5jsNnwcxDvgGuw1u/K0NomJnBxGwlwi5khELWWKvC6X6LQpmoxMF30QTA+pZSQGmeLUEMkO1Atf9swnlIrkITn4fCFwjMQflN50Fc7p3C5GDYQmFjrsKYhwhC
lpc_rms=-8.41
pitch_keycenter=e5
sample=Oboe_nonvib_FF_E5.opus
</region>

<region>
hikey=A6
hivel=127
lokey=d#6
loop_end=255151
loop_mode=loop_continuous
loop_start=56620
loop_xfade=24056
lovel=1
lpc=384aQ217PsMStwhDVFTvwSFY37+RNDVCtSZJwdfSPEL0fYjAJ/gCQvRcREFpbKtB536LQV3SeUH1oMNBSBI6QfVMxEE2jI9BIE7QwjHP60LigD3BvuWUwSVnDUJ+S7LA
lpc_rms=-13.47
pitch_keycenter=E6
sample=Oboe_nonvib_FF_E6.opus
</region>

<region>
hikey=f#4
hivel=127
lokey=f4
loop_end=266083
loop_mode=loop_continuous
loop_start=59046
loop_xfade=25087
lovel=1
lpc=4TTyQRDjwcKinAZDIYfHwoy95UFRYrRBveb3wYYUnkFHEejAXlnQv6Kd0j+qf6XA7/6AQZ9TicH6CAhBLRDJvzHVA0DZpIPABeOBvTkpZEBx7My/bDgjv79wgz94ahG/
lpc_rms=-16.96
pitch_keycenter=f#4
sample=Oboe_nonvib_FF_F#4.opus
</region>

<region>
hikey=f#5
hivel=127
lokey=f5
loop_end=264760
loop_mode=loop_continuous
loop_start=58753
loop_xfade=24962
lovel=1
lpc=fSSlQa8VV8JpNYdCF9o4wiVpSUG1EtRA0Q5lwNSLOL/aBpW+P8vrP9Zy+L+aydNAxHUOwZiSBEHK1JvApFM4QFBiPT46I3zAZ7K+QFHiRkBjDljBU+KAQVGaMcGZ6LRA
lpc_rms=-22.78
pitch_keycenter=f#5
sample=Oboe_nonvib_FF_F#5.opus
</region>

<region>
hikey=g#4
hivel=127
lokey=g4
loop_end=280225
loop_mode=loop_continuous
loop_start=62185
loop_xfade=26420
lovel=1
lpc=aumUQVWZY8LKOpZC9sU6wmTZOz5YprFBDf5mwc4Is0BGLq/AAH/yP5Lx20CEsCTBV56JQMXhuECHxbTAH/+lwJwLXUGrAmvBLXUzQSNz58BFFyVAEOxwQBZVtMBG0Q1A
lpc_rms=-19.12
pitch_keycenter=g#4
sample=Oboe_nonvib_FF_G#4.opus
</region>

<region>
hikey=g#5
hivel=127
lokey=g5
loop_end=271293
loop_mode=loop_continuous
loop_start=60203
loop_xfade=25578
lovel=1
lpc=nsASQvTeX8LoXClCVo+vwAEJwcBEBPg/CqYvQZhGn8AQZlBBv51fwQkWKkHIXbc/NwMUwOlkFEFsG3XAbmqnQFN4n0B9ncrAWjUWQXw/CsH8ZitB5sgwQUJok8Gb4H5B
lpc_rms=-15.25
pitch_keycenter=g#5
sample=Oboe_nonvib_FF_G#5.opus
</region>
</group>